<svg width="251" height="76" viewBox="0 0 251 76" fill="none" xmlns="http://www.w3.org/2000/svg">
<mask id="path-1-outside-1_102_3" maskUnits="userSpaceOnUse" x="-1" y="-1" width="253" height="78" fill="black">
<rect fill="white" x="-1" y="-1" width="253" height="78"/>
<path d="M63.816 74C63.816 72.0373 63.2613 70.416 62.152 69.136C61.0427 67.7707 59.592 67.088 57.8 67.088C56.0933 67.088 54.3013 67.8133 52.424 69.264C50.632 70.7147 48.4987 72.208 46.024 73.744C43.6347 75.1947 40.7333 75.92 37.32 75.92C25.7147 75.92 16.712 72.9333 10.312 66.96C3.99733 60.9867 0.84 51.8133 0.84 39.44C0.84 13.584 12.9147 0.655998 37.064 0.655998C41.416 0.655998 45.8533 1.72266 50.376 3.856C54.984 5.98933 57.8 7.056 58.824 7.056C59.848 7.056 60.7013 6.544 61.384 5.52C62.0667 4.41066 62.408 3.344 62.408 2.32H64.84V28.304H62.28C62.28 21.8187 59.72 16.016 54.6 10.896C49.5653 5.776 43.72 3.216 37.064 3.216C31.944 3.216 28.0613 5.98933 25.416 11.536C22.7707 16.9973 21.448 26.0853 21.448 38.8C21.448 51.4293 22.7707 60.3467 25.416 65.552C28.1467 70.7573 32.1147 73.36 37.32 73.36C45.512 73.36 49.608 66.064 49.608 51.472V42H41.544V39.44H72.264V42H66.248V74H63.816ZM103.035 71.44H113.275V74H92.795V71.44H100.475V10.512C97.7443 6.75733 95.1843 4.88 92.795 4.88V2.32H116.731L152.699 44.944V4.88H142.459V2.32H164.219V4.88H155.259V75.28H152.699L103.035 13.712V71.44ZM249.295 30.864H246.735C246.735 24.0373 244.559 17.7227 240.207 11.92C235.855 6.11733 229.626 3.216 221.519 3.216C216.996 3.216 213.242 5.86133 210.255 11.152C207.354 16.4427 205.903 25.488 205.903 38.288C205.903 51.088 207.354 60.1333 210.255 65.424C213.242 70.7147 217.85 73.36 224.079 73.36C230.394 73.36 235.684 71.3973 239.951 67.472C244.303 63.5467 246.991 58 248.015 50.832H250.575C249.38 59.28 246.394 65.5947 241.615 69.776C236.922 73.872 231.29 75.92 224.719 75.92C212.004 75.92 202.234 72.8907 195.407 66.832C188.666 60.688 185.295 51.1307 185.295 38.16C185.295 25.104 188.58 15.5893 195.151 9.616C201.807 3.64266 210.596 0.655998 221.519 0.655998C227.407 0.655998 233.124 2.23466 238.671 5.392C240.463 6.50133 241.914 7.056 243.023 7.056C244.218 7.056 245.156 6.544 245.839 5.52C246.522 4.41066 246.863 3.344 246.863 2.32H249.295V30.864Z"/>
</mask>
<path d="M63.816 74C63.816 72.0373 63.2613 70.416 62.152 69.136C61.0427 67.7707 59.592 67.088 57.8 67.088C56.0933 67.088 54.3013 67.8133 52.424 69.264C50.632 70.7147 48.4987 72.208 46.024 73.744C43.6347 75.1947 40.7333 75.92 37.32 75.92C25.7147 75.92 16.712 72.9333 10.312 66.96C3.99733 60.9867 0.84 51.8133 0.84 39.44C0.84 13.584 12.9147 0.655998 37.064 0.655998C41.416 0.655998 45.8533 1.72266 50.376 3.856C54.984 5.98933 57.8 7.056 58.824 7.056C59.848 7.056 60.7013 6.544 61.384 5.52C62.0667 4.41066 62.408 3.344 62.408 2.32H64.84V28.304H62.28C62.28 21.8187 59.72 16.016 54.6 10.896C49.5653 5.776 43.72 3.216 37.064 3.216C31.944 3.216 28.0613 5.98933 25.416 11.536C22.7707 16.9973 21.448 26.0853 21.448 38.8C21.448 51.4293 22.7707 60.3467 25.416 65.552C28.1467 70.7573 32.1147 73.36 37.32 73.36C45.512 73.36 49.608 66.064 49.608 51.472V42H41.544V39.44H72.264V42H66.248V74H63.816ZM103.035 71.44H113.275V74H92.795V71.44H100.475V10.512C97.7443 6.75733 95.1843 4.88 92.795 4.88V2.32H116.731L152.699 44.944V4.88H142.459V2.32H164.219V4.88H155.259V75.28H152.699L103.035 13.712V71.44ZM249.295 30.864H246.735C246.735 24.0373 244.559 17.7227 240.207 11.92C235.855 6.11733 229.626 3.216 221.519 3.216C216.996 3.216 213.242 5.86133 210.255 11.152C207.354 16.4427 205.903 25.488 205.903 38.288C205.903 51.088 207.354 60.1333 210.255 65.424C213.242 70.7147 217.85 73.36 224.079 73.36C230.394 73.36 235.684 71.3973 239.951 67.472C244.303 63.5467 246.991 58 248.015 50.832H250.575C249.38 59.28 246.394 65.5947 241.615 69.776C236.922 73.872 231.29 75.92 224.719 75.92C212.004 75.92 202.234 72.8907 195.407 66.832C188.666 60.688 185.295 51.1307 185.295 38.16C185.295 25.104 188.58 15.5893 195.151 9.616C201.807 3.64266 210.596 0.655998 221.519 0.655998C227.407 0.655998 233.124 2.23466 238.671 5.392C240.463 6.50133 241.914 7.056 243.023 7.056C244.218 7.056 245.156 6.544 245.839 5.52C246.522 4.41066 246.863 3.344 246.863 2.32H249.295V30.864Z" fill="#3500CB"/>
<path d="M63.816 74H62.816V75H63.816V74ZM62.152 69.136L61.3759 69.7666L61.3859 69.7789L61.3963 69.7909L62.152 69.136ZM52.424 69.264L51.8126 68.4727L51.8036 68.4796L51.7948 68.4868L52.424 69.264ZM46.024 73.744L46.543 74.5988L46.5514 74.5936L46.024 73.744ZM10.312 66.96L9.62479 67.6865L9.62968 67.6911L10.312 66.96ZM50.376 3.856L49.9494 4.76045L49.9559 4.76346L50.376 3.856ZM61.384 5.52L62.2161 6.0747L62.2261 6.05957L62.2357 6.04409L61.384 5.52ZM62.408 2.32V1.32H61.408V2.32H62.408ZM64.84 2.32H65.84V1.32H64.84V2.32ZM64.84 28.304V29.304H65.84V28.304H64.84ZM62.28 28.304H61.28V29.304H62.28V28.304ZM54.6 10.896L53.887 11.5972L53.8929 11.6031L54.6 10.896ZM25.416 11.536L26.316 11.9719L26.3186 11.9665L25.416 11.536ZM25.416 65.552L24.5244 66.0051L24.5305 66.0165L25.416 65.552ZM49.608 42H50.608V41H49.608V42ZM41.544 42H40.544V43H41.544V42ZM41.544 39.44V38.44H40.544V39.44H41.544ZM72.264 39.44H73.264V38.44H72.264V39.44ZM72.264 42V43H73.264V42H72.264ZM66.248 42V41H65.248V42H66.248ZM66.248 74V75H67.248V74H66.248ZM64.816 74C64.816 71.8372 64.1992 69.9713 62.9077 68.4811L61.3963 69.7909C62.3235 70.8607 62.816 72.2375 62.816 74H64.816ZM62.9281 68.5054C61.6248 66.9013 59.8866 66.088 57.8 66.088V68.088C59.2974 68.088 60.4605 68.64 61.3759 69.7666L62.9281 68.5054ZM57.8 66.088C55.8001 66.088 53.7979 66.9386 51.8126 68.4727L53.0355 70.0553C54.8048 68.6881 56.3866 68.088 57.8 68.088V66.088ZM51.7948 68.4868C50.0423 69.9054 47.9446 71.3749 45.4966 72.8944L46.5514 74.5936C49.0527 73.0411 51.2217 71.5239 53.0532 70.0412L51.7948 68.4868ZM45.505 72.8892C43.3034 74.2259 40.5908 74.92 37.32 74.92V76.92C40.8759 76.92 43.9659 76.1635 46.543 74.5988L45.505 72.8892ZM37.32 74.92C25.8835 74.92 17.1554 71.9793 10.9943 66.2289L9.62968 67.6911C16.2686 73.8873 25.5459 76.92 37.32 76.92V74.92ZM10.9992 66.2335C4.95643 60.5174 1.84 51.6569 1.84 39.44H-0.16C-0.16 51.9698 3.03824 61.4559 9.6248 67.6865L10.9992 66.2335ZM1.84 39.44C1.84 26.6498 4.82785 17.2434 10.6268 11.0346C16.4138 4.83865 25.1616 1.656 37.064 1.656V-0.344002C24.817 -0.344002 15.4529 2.93734 9.16519 9.66942C2.88948 16.3886 -0.16 26.3742 -0.16 39.44H1.84ZM37.064 1.656C41.248 1.656 45.5403 2.68066 49.9494 4.76043L50.8026 2.95156C46.1664 0.764668 41.584 -0.344002 37.064 -0.344002V1.656ZM49.9559 4.76346C52.269 5.83437 54.1495 6.64561 55.5898 7.19116C56.3094 7.46375 56.9324 7.67507 57.4524 7.81952C57.9537 7.95878 58.4281 8.056 58.824 8.056V6.056C58.7079 6.056 58.4463 6.01988 57.9876 5.89248C57.5476 5.77026 56.9866 5.58158 56.2982 5.32084C54.9225 4.79971 53.091 4.01096 50.7961 2.94853L49.9559 4.76346ZM58.824 8.056C60.2531 8.056 61.3909 7.31241 62.2161 6.0747L60.552 4.9653C60.0118 5.77558 59.4429 6.056 58.824 6.056V8.056ZM62.2357 6.04409C62.9892 4.81952 63.408 3.57318 63.408 2.32H61.408C61.408 3.11481 61.1441 4.00181 60.5323 4.9959L62.2357 6.04409ZM62.408 3.32H64.84V1.32H62.408V3.32ZM63.84 2.32V28.304H65.84V2.32H63.84ZM64.84 27.304H62.28V29.304H64.84V27.304ZM63.28 28.304C63.28 21.5215 60.5908 15.4725 55.3071 10.1889L53.8929 11.6031C58.8493 16.5595 61.28 22.1159 61.28 28.304H63.28ZM55.313 10.1949C50.1068 4.90037 44.0107 2.216 37.064 2.216V4.216C43.4293 4.216 49.0239 6.65163 53.887 11.5971L55.313 10.1949ZM37.064 2.216C34.3117 2.216 31.8543 2.96542 29.7308 4.48226C27.6175 5.99177 25.8885 8.2222 24.5134 11.1055L26.3186 11.9665C27.5888 9.30313 29.1239 7.37356 30.8932 6.10973C32.6523 4.85323 34.6963 4.216 37.064 4.216V2.216ZM24.516 11.1001C21.7651 16.7793 20.448 26.0646 20.448 38.8H22.448C22.448 26.1061 23.7762 17.2153 26.316 11.9719L24.516 11.1001ZM20.448 38.8C20.448 51.4444 21.7634 60.5718 24.5245 66.005L26.3075 65.099C23.778 60.1215 22.448 51.4142 22.448 38.8H20.448ZM24.5305 66.0165C25.9561 68.7342 27.7353 70.8299 29.8915 72.2442C32.0542 73.6627 34.5421 74.36 37.32 74.36V72.36C34.8926 72.36 32.7938 71.756 30.9885 70.5718C29.1767 69.3835 27.6065 67.5751 26.3015 65.0875L24.5305 66.0165ZM37.32 74.36C39.5209 74.36 41.4945 73.8684 43.2065 72.8519C44.9175 71.836 46.3129 70.3282 47.408 68.3775C49.5812 64.5065 50.608 58.8288 50.608 51.472H48.608C48.608 58.7072 47.5868 63.9735 45.664 67.3985C44.7111 69.0958 43.5465 70.324 42.1855 71.1321C40.8255 71.9396 39.2151 72.36 37.32 72.36V74.36ZM50.608 51.472V42H48.608V51.472H50.608ZM49.608 41H41.544V43H49.608V41ZM42.544 42V39.44H40.544V42H42.544ZM41.544 40.44H72.264V38.44H41.544V40.44ZM71.264 39.44V42H73.264V39.44H71.264ZM72.264 41H66.248V43H72.264V41ZM65.248 42V74H67.248V42H65.248ZM66.248 73H63.816V75H66.248V73ZM103.035 71.44H102.035V72.44H103.035V71.44ZM113.275 71.44H114.275V70.44H113.275V71.44ZM113.275 74V75H114.275V74H113.275ZM92.795 74H91.795V75H92.795V74ZM92.795 71.44V70.44H91.795V71.44H92.795ZM100.475 71.44V72.44H101.475V71.44H100.475ZM100.475 10.512H101.475V10.1868L101.284 9.92383L100.475 10.512ZM92.795 4.88H91.795V5.88H92.795V4.88ZM92.795 2.32V1.32H91.795V2.32H92.795ZM116.731 2.32L117.495 1.67509L117.196 1.32H116.731V2.32ZM152.699 44.944L151.935 45.5889L153.699 47.6796V44.944H152.699ZM152.699 4.88H153.699V3.88H152.699V4.88ZM142.459 4.88H141.459V5.88H142.459V4.88ZM142.459 2.32V1.32H141.459V2.32H142.459ZM164.219 2.32H165.219V1.32H164.219V2.32ZM164.219 4.88V5.88H165.219V4.88H164.219ZM155.259 4.88V3.88H154.259V4.88H155.259ZM155.259 75.28V76.28H156.259V75.28H155.259ZM152.699 75.28L151.921 75.9078L152.221 76.28H152.699V75.28ZM103.035 13.712L103.813 13.0842L102.035 10.8796V13.712H103.035ZM103.035 72.44H113.275V70.44H103.035V72.44ZM112.275 71.44V74H114.275V71.44H112.275ZM113.275 73H92.795V75H113.275V73ZM93.795 74V71.44H91.795V74H93.795ZM92.795 72.44H100.475V70.44H92.795V72.44ZM101.475 71.44V10.512H99.475V71.44H101.475ZM101.284 9.92383C98.5292 6.13631 95.7069 3.88 92.795 3.88V5.88C94.6618 5.88 96.9595 7.37835 99.6663 11.1002L101.284 9.92383ZM93.795 4.88V2.32H91.795V4.88H93.795ZM92.795 3.32H116.731V1.32H92.795V3.32ZM115.967 2.96491L151.935 45.5889L153.463 44.2991L117.495 1.67509L115.967 2.96491ZM153.699 44.944V4.88H151.699V44.944H153.699ZM152.699 3.88H142.459V5.88H152.699V3.88ZM143.459 4.88V2.32H141.459V4.88H143.459ZM142.459 3.32H164.219V1.32H142.459V3.32ZM163.219 2.32V4.88H165.219V2.32H163.219ZM164.219 3.88H155.259V5.88H164.219V3.88ZM154.259 4.88V75.28H156.259V4.88H154.259ZM155.259 74.28H152.699V76.28H155.259V74.28ZM153.477 74.6522L103.813 13.0842L102.257 14.3398L151.921 75.9078L153.477 74.6522ZM102.035 13.712V71.44H104.035V13.712H102.035ZM249.295 30.864V31.864H250.295V30.864H249.295ZM246.735 30.864H245.735V31.864H246.735V30.864ZM240.207 11.92L241.007 11.32L241.007 11.32L240.207 11.92ZM210.255 11.152L209.384 10.6604L209.378 10.6712L210.255 11.152ZM210.255 65.424L209.378 65.9049L209.384 65.9156L210.255 65.424ZM239.951 67.472L239.281 66.7294L239.274 66.7361L239.951 67.472ZM248.015 50.832V49.832H247.148L247.025 50.6906L248.015 50.832ZM250.575 50.832L251.565 50.972L251.726 49.832H250.575V50.832ZM241.615 69.776L242.273 70.5294L242.274 70.5286L241.615 69.776ZM195.407 66.832L194.733 67.5712L194.743 67.5799L195.407 66.832ZM195.151 9.616L194.483 8.87174L194.478 8.87606L195.151 9.616ZM238.671 5.392L239.197 4.54173L239.182 4.53204L239.166 4.52293L238.671 5.392ZM245.839 5.52L246.671 6.0747L246.681 6.05957L246.691 6.04409L245.839 5.52ZM246.863 2.32V1.32H245.863V2.32H246.863ZM249.295 2.32H250.295V1.32H249.295V2.32ZM249.295 29.864H246.735V31.864H249.295V29.864ZM247.735 30.864C247.735 23.807 245.48 17.2842 241.007 11.32L239.407 12.52C243.638 18.1611 245.735 24.2677 245.735 30.864H247.735ZM241.007 11.32C236.442 5.23333 229.898 2.216 221.519 2.216V4.216C229.353 4.216 235.268 7.00133 239.407 12.52L241.007 11.32ZM221.519 2.216C216.514 2.216 212.479 5.17857 209.384 10.6604L211.126 11.6436C214.005 6.54408 217.479 4.216 221.519 4.216V2.216ZM209.378 10.6712C206.346 16.2 204.903 25.4687 204.903 38.288H206.903C206.903 25.5073 208.361 16.6853 211.132 11.6328L209.378 10.6712ZM204.903 38.288C204.903 51.1073 206.346 60.376 209.378 65.9048L211.132 64.9432C208.361 59.8907 206.903 51.0687 206.903 38.288H204.903ZM209.384 65.9156C212.554 71.5301 217.5 74.36 224.079 74.36V72.36C218.199 72.36 213.93 69.8992 211.126 64.9324L209.384 65.9156ZM224.079 74.36C230.62 74.36 236.16 72.3189 240.628 68.2079L239.274 66.7361C235.209 70.4758 230.167 72.36 224.079 72.36V74.36ZM240.621 68.2146C245.185 64.0982 247.956 58.3168 249.005 50.9734L247.025 50.6906C246.026 57.6832 243.421 62.9951 239.281 66.7294L240.621 68.2146ZM248.015 51.832H250.575V49.832H248.015V51.832ZM249.585 50.692C248.412 58.9849 245.501 65.0472 240.957 69.0234L242.274 70.5286C247.287 66.1422 250.349 59.5751 251.565 50.972L249.585 50.692ZM240.957 69.0226C236.457 72.9504 231.062 74.92 224.719 74.92V76.92C231.517 76.92 237.386 74.7936 242.273 70.5294L240.957 69.0226ZM224.719 74.92C212.153 74.92 202.654 71.9263 196.071 66.0841L194.743 67.5799C201.814 73.8551 211.856 76.92 224.719 76.92V74.92ZM196.081 66.0929C189.623 60.2072 186.295 50.9709 186.295 38.16H184.295C184.295 51.2904 187.709 61.1688 194.733 67.5711L196.081 66.0929ZM186.295 38.16C186.295 25.2518 189.543 16.0653 195.824 10.3559L194.478 8.87606C187.617 15.1134 184.295 24.9562 184.295 38.16H186.295ZM195.819 10.3602C202.253 4.58613 210.786 1.656 221.519 1.656V-0.344002C210.407 -0.344002 201.361 2.6992 194.483 8.87175L195.819 10.3602ZM221.519 1.656C227.219 1.656 232.767 3.18212 238.176 6.26106L239.166 4.52293C233.481 1.28721 227.595 -0.344002 221.519 -0.344002V1.656ZM238.145 6.24226C239.975 7.37538 241.625 8.056 243.023 8.056V6.056C242.203 6.056 240.951 5.62728 239.197 4.54173L238.145 6.24226ZM243.023 8.056C244.564 8.056 245.81 7.36682 246.671 6.0747L245.007 4.9653C244.503 5.72118 243.871 6.056 243.023 6.056V8.056ZM246.691 6.04409C247.444 4.81952 247.863 3.57318 247.863 2.32H245.863C245.863 3.11481 245.599 4.00181 244.987 4.9959L246.691 6.04409ZM246.863 3.32H249.295V1.32H246.863V3.32ZM248.295 2.32V30.864H250.295V2.32H248.295Z" fill="white" mask="url(#path-1-outside-1_102_3)"/>
</svg>
